<?xml version="1.0" encoding="UTF-8"?>
<svg width="160" height="160" viewBox="0 0 160 160" fill="none" xmlns="http://www.w3.org/2000/svg">
  <defs>
    <linearGradient id="g" x1="20" y1="20" x2="140" y2="140" gradientUnits="userSpaceOnUse">
      <stop stop-color="#2CC5E3"/>
      <stop offset="1" stop-color="#122A50"/>
    </linearGradient>
    <filter id="shadow" x="-20%" y="-20%" width="140%" height="140%">
      <feDropShadow dx="0" dy="6" stdDeviation="10" flood-color="#000" flood-opacity="0.25"/>
    </filter>
  </defs>
  <rect x="8" y="8" width="144" height="144" rx="32" fill="url(#g)" filter="url(#shadow)"/>
  <rect x="28" y="28" width="104" height="104" rx="16" fill="#F5F8FC" stroke="#1E283C" stroke-width="2"/>
  <g stroke="#D2DCEB" stroke-width="2">
    <line x1="44" y1="48" x2="116" y2="48"/>
    <line x1="44" y1="64" x2="116" y2="64"/>
    <line x1="44" y1="80" x2="116" y2="80"/>
    <line x1="44" y1="96" x2="116" y2="96"/>
    <line x1="44" y1="112" x2="116" y2="112"/>
  </g>
  <g transform="translate(0,0) rotate(-30 100 60)">
    <rect x="80" y="52" width="56" height="12" rx="6" fill="#FFD056"/>
    <rect x="76" y="51" width="14" height="14" rx="7" fill="#FF788C"/>
    <polygon points="136,58 148,58 144,63" fill="#3C3228"/>
  </g>
</svg>
